<svg xmlns="http://www.w3.org/2000/svg" width="606" height="266" fill="none"><mask id="a" fill="#fff"><path fill-rule="evenodd" d="M45 0C20.147 0 0 20.147 0 45v147.952c0 24.853 20.168 45 45.02 45h11.341L83 266l26.639-28.048h451.34c24.853 0 45.021-20.147 45.021-45V45c0-24.853-20.147-45-45-45z" clip-rule="evenodd"/></mask><path fill="#191A23" fill-rule="evenodd" d="M45 0C20.147 0 0 20.147 0 45v147.952c0 24.853 20.168 45 45.02 45h11.341L83 266l26.639-28.048h451.34c24.853 0 45.021-20.147 45.021-45V45c0-24.853-20.147-45-45-45z" clip-rule="evenodd"/><path fill="#B9FF66" d="m56.361 237.952.725-.688-.295-.312h-.43zM83 266l-.725.689.725.763.725-.763zm26.639-28.048v-1h-.43l-.295.312zM1 45C1 20.7 20.7 1 45 1v-2C19.595-1-1 19.595-1 45zm0 147.952V45h-2v147.952zm44.02 44c-24.3 0-44.02-19.7-44.02-44h-2c0 25.406 20.616 46 46.02 46zm11.341 0h-11.34v2h11.34zm27.364 28.359-26.639-28.047-1.45 1.377 26.639 28.048zm25.189-28.047-26.64 28.047 1.451 1.378 26.639-28.048zm452.065-.312h-451.34v2h451.34zm44.021-44c0 24.3-19.719 44-44.021 44v2c25.405 0 46.021-20.594 46.021-46zM605 45v147.952h2V45zM561 1c24.3 0 44 19.7 44 44h2c0-25.405-20.595-46-46-46zM45 1h516v-2H45z" mask="url(#a)"/></svg>