<svg xmlns="http://www.w3.org/2000/svg" xml:space="preserve" style="enable-background:new 0 0 367.1 649" viewBox="0 0 367.1 649"><defs><filter id="a" width="650" height="648.3" x="41.6" y=".4" filterUnits="userSpaceOnUse"><feColorMatrix values="1 0 0 0 0 0 1 0 0 0 0 0 1 0 0 0 0 0 1 0"/></filter></defs><mask id="b" width="650" height="648.3" x="41.6" y=".4" maskUnits="userSpaceOnUse"><path d="M40.7-.5h651v650h-651z" style="fill:#fff;filter:url(#a)"/><path d="M366.6 162.1 387.1.5l-.2 162.8L427.4 5.6 407 167.2l60-151.5-40.5 157.9 78.5-143-60.2 151.5 95.9-131.9L462 193.1 573.6 74.3 477.8 206l125.6-103.8-111.6 118.7 137.7-87.2-125.8 103.8 147.6-69.4-137.7 87.2L668.7 205l-147.6 69.4 160.2-30.6-155.1 50.4L689 283.8l-160.2 30.5 162.8 10.2-162.8 10.2L689 365.1l-162.8-10.2 155.1 50.2-160.2-30.5L668.7 444l-155.1-50.4 137.7 87.2-147.6-69.4 125.8 103.8-137.7-87.4 111.7 118.8-125.6-104 95.8 131.9-111.6-118.7 78.7 142.7-95.9-131.9L505 618.2l-78.5-142.7L467 633.2l-60-151.5 20.4 161.7-40.5-157.9.2 163-20.4-161.7-20.4 161.7v-163l-40.5 157.9 20.6-161.7-60 151.5 40.5-157.7-78.5 142.7 60.2-151.5-95.9 131.9 78.7-142.7-111.9 118.8 95.9-131.9-125.6 104L241.5 428l-137.7 87.4 125.8-103.8-147.7 69.3 137.7-87.2L64.5 444l147.6-69.4-160.2 30.5L207 354.9 44.3 365.1l160.2-30.5-162.8-10.2 162.8-10.2-160.2-30.4L207 294.1 51.9 243.7l160.2 30.6L64.5 205l155.1 50.4-137.7-87.3 147.6 69.4-125.7-103.8 137.7 87.2-111.7-118.6 125.6 103.8-95.9-131.8 111.7 118.8-78.7-142.8 95.9 131.9-60.1-151.6 78.5 142.9-40.5-157.8 60 151.5L305.7 5.6l40.5 157.7V.5z"/></mask><path d="M366.6 162.1 387.1.5l-.2 162.8L427.4 5.6 407 167.2l60-151.5-40.5 157.9 78.5-143-60.2 151.5 95.9-131.9L462 193.1 573.6 74.3 477.8 206l125.6-103.8-111.6 118.7 137.7-87.2-125.8 103.8 147.6-69.4-137.7 87.2L668.7 205l-147.6 69.4 160.2-30.6-155.1 50.4L689 283.8l-160.2 30.5 162.8 10.2-162.8 10.2L689 365.1l-162.8-10.2 155.1 50.2-160.2-30.5L668.7 444l-155.1-50.4 137.7 87.2-147.6-69.4 125.8 103.8-137.7-87.4 111.7 118.8-125.6-104 95.8 131.9-111.6-118.7 78.7 142.7-95.9-131.9L505 618.2l-78.5-142.7L467 633.2l-60-151.5 20.4 161.7-40.5-157.9.2 163-20.4-161.7-20.4 161.7v-163l-40.5 157.9 20.6-161.7-60 151.5 40.5-157.7-78.5 142.7 60.2-151.5-95.9 131.9 78.7-142.7-111.9 118.8 95.9-131.9-125.6 104L241.5 428l-137.7 87.4 125.8-103.8-147.7 69.3 137.7-87.2L64.5 444l147.6-69.4-160.2 30.5L207 354.9 44.3 365.1l160.2-30.5-162.8-10.2 162.8-10.2-160.2-30.4L207 294.1 51.9 243.7l160.2 30.6L64.5 205l155.1 50.4-137.7-87.3 147.6 69.4-125.7-103.8 137.7 87.2-111.7-118.6 125.6 103.8-95.9-131.8 111.7 118.8-78.7-142.8 95.9 131.9-60.1-151.6 78.5 142.9-40.5-157.8 60 151.5L305.7 5.6l40.5 157.7V.5z" style="mask:url(#b);fill:none;stroke:#000;stroke-width:2;stroke-miterlimit:10"/><path d="m95.7 470.6 45.7 24.9-45.7 25.1-25 45.6-25-45.6L0 495.5l45.7-24.9 25-45.8z" style="fill:#b9ff66"/><path d="m217.1 244.1 81.7 44.5-81.7 44.9-44.7 81.5-44.7-81.5L46 288.6l81.7-44.5 44.7-81.9z" style="fill:#191a23"/></svg>